<?xml version="1.0" standalone="no"?>
<!DOCTYPE svg PUBLIC "-//W3C//DTD SVG 20010904//EN"
 "http://www.w3.org/TR/2001/REC-SVG-20010904/DTD/svg10.dtd">
<svg version="1.0" xmlns="http://www.w3.org/2000/svg"
 width="16.000000pt" height="16.000000pt" viewBox="0 0 16.000000 16.000000"
 preserveAspectRatio="xMidYMid meet">

<g transform="translate(0.000000,16.000000) scale(0.100000,-0.100000)"
fill="#000000" stroke="none">
<path d="M43 123 c-7 -2 -13 -9 -13 -14 0 -4 7 -6 15 -3 13 5 14 2 5 -21 -5
-14 -10 -33 -10 -41 0 -22 17 -16 24 9 l7 22 9 -23 c10 -25 40 -27 48 -4 2 7
-2 10 -12 6 -21 -8 -20 10 0 42 9 13 13 28 9 32 -4 4 -14 -3 -22 -15 -19 -28
-33 -30 -26 -3 5 20 -7 25 -34 13z"/>
</g>
</svg>
